<svg xmlns="http://www.w3.org/2000/svg" xmlns:xlink="http://www.w3.org/1999/xlink" width="4067" zoomAndPan="magnify" viewBox="0 0 3050.25 1931.99992" height="2576" preserveAspectRatio="xMidYMid meet" version="1.0"><defs><clipPath id="8e49a3c814"><path d="M 793 1398 L 1205 1398 L 1205 1809.5 L 793 1809.5 Z M 793 1398 " clip-rule="nonzero"/></clipPath><clipPath id="07cfb6a635"><path d="M 718.070312 767 L 903 767 L 903 952 L 718.070312 952 Z M 718.070312 767 " clip-rule="nonzero"/></clipPath><clipPath id="f818ecc6af"><path d="M 1030 122.414062 L 1241 122.414062 L 1241 333 L 1030 333 Z M 1030 122.414062 " clip-rule="nonzero"/></clipPath></defs><g clip-path="url(#8e49a3c814)"><path fill="#b8dd16" d="M 1204.464844 1604.152344 C 1204.464844 1717.5625 1112.507812 1809.519531 999.0625 1809.519531 C 885.621094 1809.519531 793.652344 1717.5625 793.652344 1604.152344 C 793.652344 1490.742188 885.621094 1398.800781 999.0625 1398.800781 C 1112.507812 1398.800781 1204.464844 1490.742188 1204.464844 1604.152344 " fill-opacity="1" fill-rule="nonzero"/></g><path fill="#b8dd16" d="M 1492.742188 492.675781 C 1492.742188 576.191406 1425.027344 643.886719 1341.492188 643.886719 C 1257.957031 643.886719 1190.242188 576.191406 1190.242188 492.675781 C 1190.242188 409.140625 1257.957031 341.457031 1341.492188 341.457031 C 1425.027344 341.457031 1492.742188 409.140625 1492.742188 492.675781 " fill-opacity="1" fill-rule="nonzero"/><path fill="#81cc2a" d="M 2114.027344 430.777344 C 2114.027344 487.871094 2067.71875 534.171875 2010.613281 534.171875 C 1953.5 534.171875 1907.191406 487.871094 1907.191406 430.777344 C 1907.191406 373.675781 1953.5 327.375 2010.613281 327.375 C 2067.71875 327.375 2114.027344 373.675781 2114.027344 430.777344 " fill-opacity="1" fill-rule="nonzero"/><g clip-path="url(#07cfb6a635)"><path fill="#e69613" d="M 902.660156 859.703125 C 902.660156 910.632812 861.34375 951.960938 810.382812 951.960938 C 759.421875 951.960938 718.113281 910.632812 718.113281 859.703125 C 718.113281 808.753906 759.421875 767.425781 810.382812 767.425781 C 861.34375 767.425781 902.660156 808.753906 902.660156 859.703125 " fill-opacity="1" fill-rule="nonzero"/></g><path fill="#80cc28" d="M 1150.3125 1139.519531 C 1150.3125 1223.023438 1082.597656 1290.746094 999.0625 1290.746094 C 915.53125 1290.746094 847.804688 1223.023438 847.804688 1139.519531 C 847.804688 1056 915.53125 988.289062 999.0625 988.289062 C 1082.597656 988.289062 1150.3125 1056 1150.3125 1139.519531 " fill-opacity="1" fill-rule="nonzero"/><g clip-path="url(#f818ecc6af)"><path fill="#498536" d="M 1240.472656 227.492188 C 1240.472656 285.523438 1193.414062 332.5625 1135.367188 332.5625 C 1077.316406 332.5625 1030.265625 285.523438 1030.265625 227.492188 C 1030.265625 169.449219 1077.316406 122.394531 1135.367188 122.394531 C 1193.414062 122.394531 1240.472656 169.449219 1240.472656 227.492188 " fill-opacity="1" fill-rule="nonzero"/></g><path fill="#498536" d="M 2306.667969 1331.125 C 2285.609375 1264.613281 2217.421875 1223.175781 2148.664062 1235.058594 C 2118.8125 1240.199219 2093.042969 1254.175781 2073.320312 1273.722656 C 2006.722656 1339.632812 1919.78125 1381.121094 1827.335938 1396.617188 L 1815.882812 1398.527344 C 1771.742188 1405.949219 1727.523438 1413.085938 1719.261719 1386.839844 C 1695.394531 1311.082031 1807.410156 1253.59375 1873.425781 1207.417969 L 1882.960938 1200.765625 C 1959.746094 1147.058594 2050.84375 1115.722656 2144.554688 1116.078125 C 2172.316406 1116.171875 2200.488281 1108.085938 2225.398438 1090.847656 C 2282.773438 1051.125 2302.34375 973.789062 2270.765625 911.589844 C 2233.371094 837.953125 2142.277344 812.496094 2072.578125 854.132812 C 2044.472656 870.941406 2024.347656 895.984375 2013.417969 924.320312 C 1979.945312 1011.269531 1923.554688 1087.480469 1847.207031 1140.886719 L 1824.71875 1156.609375 C 1768.90625 1195.628906 1693.441406 1269.828125 1639.261719 1230.5 C 1581.886719 1188.855469 1632.828125 1088.078125 1653.382812 1019.140625 L 1656.722656 1008.023438 C 1683.507812 918.222656 1735.40625 837.078125 1809.0625 779.140625 C 1830.871094 761.996094 1847.949219 738.132812 1856.738281 709.167969 C 1877.011719 642.394531 1844.296875 569.664062 1780.867188 540.53125 C 1705.835938 506.050781 1618.605469 542.714844 1589.90625 618.625 C 1578.3125 649.242188 1578.09375 681.367188 1587.148438 710.367188 C 1614.9375 799.289062 1618.125 894.042969 1591.492188 983.316406 L 1583.640625 1009.589844 C 1559.765625 1089.589844 1532.386719 1197.363281 1451.753906 1214.507812 C 1413.785156 1222.59375 1386.054688 1184.539062 1361.605469 1129.238281 L 1356.914062 1118.621094 C 1319.023438 1032.925781 1305.84375 937.527344 1324.277344 845.652344 C 1329.738281 818.421875 1327.230469 789.222656 1315.121094 761.46875 C 1287.210938 697.527344 1215.09375 663.40625 1147.949219 682.398438 C 1068.476562 704.851562 1025.914062 789.328125 1053.328125 865.707031 C 1064.386719 896.535156 1085.074219 921.101562 1110.796875 937.28125 C 1189.652344 986.917969 1253.585938 1056.957031 1291.253906 1142.152344 L 1302.34375 1167.226562 C 1337.28125 1246.25 1338.640625 1266.351562 1315.71875 1317.996094 C 1270.125 1420.722656 1279.207031 1495.589844 1285.859375 1518.757812 C 1317.335938 1628.304688 1431.667969 1691.597656 1541.226562 1660.148438 C 1584.148438 1647.804688 1619.957031 1622.777344 1645.746094 1590.296875 C 1715.375 1502.597656 1706.324219 1487.449219 1816.773438 1468.914062 L 1843.820312 1464.375 C 1935.703125 1448.953125 2029.367188 1463.820312 2114.195312 1502.363281 C 2141.863281 1514.941406 2173.777344 1518.691406 2205.601562 1510.980469 C 2284.472656 1491.847656 2331.625 1409.839844 2306.667969 1331.125 " fill-opacity="1" fill-rule="nonzero"/></svg>