<svg xmlns="http://www.w3.org/2000/svg" xmlns:xlink="http://www.w3.org/1999/xlink" width="4067" zoomAndPan="magnify" viewBox="0 0 3050.25 1931.99992" height="2576" preserveAspectRatio="xMidYMid meet" version="1.0"><defs><clipPath id="887967f27c"><path d="M 709.648438 150.898438 L 2339.75 150.898438 L 2339.75 1781 L 709.648438 1781 Z M 709.648438 150.898438 " clip-rule="nonzero"/></clipPath><clipPath id="299d856ec4"><path d="M 1045.277344 539 L 2322 539 L 2322 1754 L 1045.277344 1754 Z M 1045.277344 539 " clip-rule="nonzero"/></clipPath><clipPath id="87e008c911"><path d="M 2339.84375 965.996094 C 2339.84375 1416.164062 1974.914062 1781.09375 1524.746094 1781.09375 C 1074.578125 1781.09375 709.648438 1416.164062 709.648438 965.996094 C 709.648438 515.828125 1074.578125 150.898438 1524.746094 150.898438 C 1974.914062 150.898438 2339.84375 515.828125 2339.84375 965.996094 " clip-rule="nonzero"/></clipPath></defs><g clip-path="url(#887967f27c)"><path fill="#ff8200" d="M 2339.84375 965.996094 C 2339.84375 1416.164062 1974.914062 1781.09375 1524.746094 1781.09375 C 1074.578125 1781.09375 709.648438 1416.164062 709.648438 965.996094 C 709.648438 515.828125 1074.578125 150.898438 1524.746094 150.898438 C 1974.914062 150.898438 2339.84375 515.828125 2339.84375 965.996094 " fill-opacity="1" fill-rule="nonzero"/></g><g clip-path="url(#299d856ec4)"><g clip-path="url(#87e008c911)"><path fill="#c86600" d="M 1735.980469 1753.457031 L 1151.519531 1274.925781 C 1150.246094 1273.882812 1149.015625 1272.828125 1147.765625 1271.777344 C 1146.859375 1271.011719 1145.929688 1270.257812 1145.03125 1269.484375 C 1143.269531 1267.972656 1141.546875 1266.449219 1139.832031 1264.921875 C 1139.203125 1264.359375 1138.558594 1263.8125 1137.933594 1263.25 C 1135.621094 1261.160156 1133.335938 1259.050781 1131.09375 1256.921875 C 1130.609375 1256.457031 1130.144531 1255.984375 1129.664062 1255.519531 C 1128.0625 1253.976562 1126.457031 1252.441406 1124.898438 1250.875 L 1124.464844 1250.433594 C 1124.0625 1250.035156 1123.671875 1249.625 1123.273438 1249.21875 C 1121.65625 1247.578125 1120.058594 1245.929688 1118.488281 1244.269531 C 1117.933594 1243.675781 1117.371094 1243.089844 1116.824219 1242.492188 C 1115.152344 1240.710938 1113.511719 1238.910156 1111.902344 1237.105469 C 1111.65625 1236.828125 1111.40625 1236.550781 1111.160156 1236.28125 C 1109.332031 1234.214844 1107.554688 1232.140625 1105.804688 1230.046875 C 1105.332031 1229.488281 1104.867188 1228.917969 1104.402344 1228.355469 C 1103.054688 1226.722656 1101.726562 1225.082031 1100.425781 1223.441406 C 1099.96875 1222.863281 1099.511719 1222.289062 1099.0625 1221.710938 C 1097.40625 1219.589844 1095.78125 1217.457031 1094.199219 1215.3125 C 1093.988281 1215.027344 1093.792969 1214.742188 1093.585938 1214.457031 C 1092.199219 1212.5625 1090.851562 1210.660156 1089.523438 1208.75 C 1089.089844 1208.121094 1088.648438 1207.484375 1088.21875 1206.847656 C 1087.007812 1205.0625 1085.816406 1203.28125 1084.65625 1201.484375 C 1084.363281 1201.039062 1084.0625 1200.589844 1083.777344 1200.140625 C 1082.371094 1197.9375 1081.007812 1195.730469 1079.671875 1193.511719 C 1079.351562 1192.964844 1079.035156 1192.417969 1078.714844 1191.871094 C 1077.671875 1190.117188 1076.660156 1188.355469 1075.671875 1186.582031 C 1075.3125 1185.945312 1074.953125 1185.300781 1074.601562 1184.65625 C 1073.363281 1182.402344 1072.152344 1180.132812 1070.988281 1177.847656 L 1070.980469 1177.832031 C 1069.820312 1175.546875 1068.710938 1173.246094 1067.617188 1170.9375 C 1067.3125 1170.289062 1067.011719 1169.628906 1066.710938 1168.960938 C 1065.871094 1167.15625 1065.0625 1165.34375 1064.285156 1163.523438 C 1064.039062 1162.953125 1063.78125 1162.382812 1063.542969 1161.808594 C 1062.5625 1159.492188 1061.625 1157.167969 1060.71875 1154.832031 C 1060.539062 1154.351562 1060.367188 1153.878906 1060.1875 1153.402344 C 1059.460938 1151.484375 1058.761719 1149.566406 1058.089844 1147.632812 C 1057.847656 1146.941406 1057.609375 1146.253906 1057.378906 1145.566406 C 1056.671875 1143.480469 1056 1141.398438 1055.355469 1139.308594 C 1055.257812 1138.988281 1055.152344 1138.679688 1055.054688 1138.359375 C 1054.335938 1135.984375 1053.660156 1133.585938 1053.015625 1131.1875 C 1052.84375 1130.535156 1052.679688 1129.882812 1052.515625 1129.234375 C 1052.027344 1127.359375 1051.570312 1125.488281 1051.136719 1123.613281 C 1050.988281 1122.953125 1050.828125 1122.304688 1050.679688 1121.644531 C 1050.140625 1119.222656 1049.636719 1116.796875 1049.179688 1114.363281 C 1049.121094 1114.039062 1049.070312 1113.71875 1049.007812 1113.394531 C 1048.613281 1111.253906 1048.261719 1109.101562 1047.921875 1106.945312 C 1047.816406 1106.226562 1047.710938 1105.507812 1047.609375 1104.789062 C 1047.316406 1102.789062 1047.054688 1100.773438 1046.820312 1098.757812 C 1046.761719 1098.261719 1046.695312 1097.761719 1046.640625 1097.257812 C 1046.363281 1094.792969 1046.140625 1092.320312 1045.953125 1089.839844 C 1045.90625 1089.242188 1045.871094 1088.628906 1045.832031 1088.027344 C 1045.699219 1086.066406 1045.585938 1084.101562 1045.503906 1082.140625 C 1045.472656 1081.429688 1045.441406 1080.714844 1045.421875 1080.003906 C 1045.332031 1077.496094 1045.277344 1074.976562 1045.277344 1072.460938 C 1045.277344 1070.511719 1045.324219 1068.574219 1045.398438 1066.640625 C 1045.414062 1066.109375 1045.441406 1065.574219 1045.464844 1065.042969 C 1045.539062 1063.472656 1045.628906 1061.90625 1045.75 1060.339844 C 1045.78125 1059.949219 1045.800781 1059.558594 1045.832031 1059.164062 C 1045.988281 1057.273438 1046.183594 1055.386719 1046.410156 1053.515625 C 1046.460938 1053.066406 1046.523438 1052.617188 1046.582031 1052.164062 C 1046.777344 1050.660156 1046.984375 1049.160156 1047.226562 1047.671875 C 1047.300781 1047.167969 1047.375 1046.675781 1047.457031 1046.171875 C 1047.773438 1044.316406 1048.101562 1042.464844 1048.476562 1040.621094 C 1048.523438 1040.417969 1048.566406 1040.214844 1048.613281 1040.007812 C 1048.949219 1038.359375 1049.324219 1036.710938 1049.71875 1035.078125 C 1049.839844 1034.558594 1049.96875 1034.050781 1050.09375 1033.542969 C 1050.484375 1031.984375 1050.898438 1030.441406 1051.332031 1028.902344 C 1051.414062 1028.621094 1051.488281 1028.335938 1051.570312 1028.050781 C 1052.089844 1026.265625 1052.640625 1024.492188 1053.21875 1022.738281 C 1053.367188 1022.28125 1053.527344 1021.824219 1053.675781 1021.367188 C 1054.148438 1019.972656 1054.644531 1018.589844 1055.152344 1017.203125 C 1055.308594 1016.761719 1055.472656 1016.316406 1055.640625 1015.882812 C 1056.289062 1014.152344 1056.972656 1012.445312 1057.683594 1010.75 C 1057.804688 1010.453125 1057.9375 1010.152344 1058.066406 1009.851562 C 1058.679688 1008.421875 1059.308594 1007.007812 1059.960938 1005.589844 C 1060.179688 1005.125 1060.394531 1004.652344 1060.613281 1004.179688 C 1061.347656 1002.636719 1062.097656 1001.109375 1062.875 999.589844 L 1063.070312 999.191406 C 1063.917969 997.550781 1064.792969 995.941406 1065.691406 994.335938 C 1065.941406 993.902344 1066.1875 993.46875 1066.433594 993.035156 C 1067.167969 991.753906 1067.925781 990.480469 1068.695312 989.21875 C 1068.914062 988.859375 1069.125 988.5 1069.339844 988.148438 C 1070.308594 986.597656 1071.296875 985.0625 1072.308594 983.550781 C 1072.53125 983.210938 1072.757812 982.890625 1072.988281 982.554688 C 1073.820312 981.324219 1074.675781 980.109375 1075.542969 978.90625 C 1075.835938 978.5 1076.128906 978.089844 1076.429688 977.683594 C 1077.515625 976.199219 1078.625 974.738281 1079.753906 973.300781 L 1079.925781 973.089844 C 1081.011719 971.710938 1082.128906 970.363281 1083.261719 969.03125 C 1083.589844 968.632812 1083.925781 968.242188 1084.265625 967.855469 C 1085.261719 966.707031 1086.265625 965.570312 1087.292969 964.445312 C 1087.523438 964.191406 1087.757812 963.929688 1087.996094 963.667969 C 1089.230469 962.332031 1090.496094 961.015625 1091.777344 959.71875 C 1092.101562 959.394531 1092.421875 959.082031 1092.746094 958.757812 C 1093.78125 957.734375 1094.835938 956.722656 1095.890625 955.726562 C 1096.242188 955.394531 1096.597656 955.058594 1096.957031 954.730469 C 1098.296875 953.492188 1099.660156 952.265625 1101.046875 951.074219 C 1101.242188 950.902344 1101.441406 950.742188 1101.636719 950.570312 C 1102.5 949.835938 1103.355469 949.109375 1104.230469 948.390625 C 1104.476562 948.1875 1104.746094 948 1104.996094 947.800781 C 1106.179688 946.839844 1107.375 945.910156 1108.589844 944.996094 C 1109.183594 944.539062 1109.773438 944.066406 1110.382812 943.625 C 1112.050781 942.390625 1113.746094 941.183594 1115.46875 940.007812 L 1115.933594 939.6875 C 1117.8125 938.410156 1119.722656 937.191406 1121.664062 936 C 1122.269531 935.625 1122.882812 935.273438 1123.5 934.90625 C 1124.847656 934.105469 1126.203125 933.300781 1127.582031 932.539062 C 1128.332031 932.117188 1129.09375 931.714844 1129.851562 931.308594 C 1131.125 930.628906 1132.40625 929.953125 1133.703125 929.300781 C 1134.503906 928.90625 1135.304688 928.507812 1136.113281 928.117188 C 1137.417969 927.496094 1138.738281 926.890625 1140.0625 926.296875 C 1140.855469 925.9375 1141.660156 925.578125 1142.460938 925.234375 C 1143.898438 924.621094 1145.351562 924.027344 1146.8125 923.457031 C 1147.515625 923.179688 1148.207031 922.890625 1148.910156 922.628906 C 1151.082031 921.808594 1153.269531 921.023438 1155.488281 920.304688 C 1156.507812 914.167969 1157.734375 908.046875 1159.175781 901.957031 C 1120.425781 862.230469 1098.507812 808.867188 1098.507812 753.082031 C 1098.507812 751.113281 1098.535156 749.148438 1098.589844 747.195312 C 1098.613281 746.558594 1098.640625 745.921875 1098.664062 745.285156 C 1098.707031 743.972656 1098.761719 742.652344 1098.835938 741.34375 C 1098.875 740.59375 1098.925781 739.835938 1098.980469 739.089844 C 1099.054688 737.898438 1099.136719 736.707031 1099.234375 735.523438 C 1099.292969 734.734375 1099.367188 733.949219 1099.441406 733.160156 C 1099.546875 732.015625 1099.667969 730.863281 1099.789062 729.714844 C 1099.878906 728.929688 1099.96875 728.144531 1100.066406 727.355469 C 1100.199219 726.210938 1100.347656 725.0625 1100.507812 723.917969 C 1100.613281 723.160156 1100.714844 722.394531 1100.828125 721.632812 C 1101.007812 720.441406 1101.195312 719.25 1101.398438 718.058594 C 1101.511719 717.363281 1101.625 716.664062 1101.742188 715.96875 C 1101.984375 714.605469 1102.246094 713.242188 1102.515625 711.878906 C 1102.613281 711.375 1102.703125 710.875 1102.808594 710.371094 C 1103.179688 708.515625 1103.585938 706.664062 1104.011719 704.820312 C 1104.101562 704.4375 1104.199219 704.058594 1104.296875 703.667969 C 1104.640625 702.222656 1104.996094 700.777344 1105.367188 699.335938 C 1105.542969 698.679688 1105.722656 698.035156 1105.902344 697.382812 C 1106.214844 696.21875 1106.53125 695.050781 1106.867188 693.890625 C 1107.078125 693.171875 1107.292969 692.453125 1107.511719 691.742188 C 1107.832031 690.652344 1108.164062 689.566406 1108.507812 688.496094 C 1108.746094 687.753906 1108.988281 687.019531 1109.226562 686.292969 C 1109.578125 685.238281 1109.929688 684.179688 1110.296875 683.132812 C 1110.554688 682.40625 1110.808594 681.679688 1111.070312 680.960938 C 1111.453125 679.886719 1111.847656 678.832031 1112.246094 677.777344 C 1112.507812 677.085938 1112.761719 676.398438 1113.03125 675.714844 C 1113.476562 674.585938 1113.933594 673.460938 1114.390625 672.335938 C 1114.636719 671.738281 1114.875 671.136719 1115.125 670.546875 C 1115.730469 669.109375 1116.351562 667.683594 1116.988281 666.261719 C 1117.109375 665.992188 1117.222656 665.722656 1117.347656 665.453125 C 1118.105469 663.765625 1118.890625 662.097656 1119.699219 660.433594 C 1119.941406 659.9375 1120.1875 659.453125 1120.425781 658.964844 C 1121.003906 657.796875 1121.582031 656.632812 1122.179688 655.480469 C 1122.503906 654.859375 1122.832031 654.246094 1123.160156 653.628906 C 1123.695312 652.613281 1124.242188 651.59375 1124.796875 650.589844 C 1125.148438 649.9375 1125.515625 649.285156 1125.882812 648.640625 C 1126.429688 647.675781 1126.976562 646.714844 1127.535156 645.757812 C 1127.917969 645.105469 1128.300781 644.453125 1128.691406 643.808594 C 1129.261719 642.855469 1129.835938 641.921875 1130.414062 640.976562 C 1130.8125 640.347656 1131.199219 639.710938 1131.597656 639.089844 C 1132.210938 638.121094 1132.832031 637.171875 1133.457031 636.21875 C 1133.84375 635.636719 1134.226562 635.042969 1134.617188 634.457031 C 1135.320312 633.410156 1136.046875 632.359375 1136.765625 631.328125 C 1137.097656 630.863281 1137.410156 630.390625 1137.742188 629.933594 C 1138.796875 628.4375 1139.875 626.953125 1140.96875 625.492188 L 1141.328125 625.027344 C 1142.308594 623.714844 1143.308594 622.417969 1144.324219 621.132812 C 1144.707031 620.652344 1145.097656 620.171875 1145.488281 619.691406 C 1146.242188 618.75 1147.007812 617.804688 1147.785156 616.867188 C 1148.242188 616.320312 1148.707031 615.773438 1149.171875 615.226562 C 1149.898438 614.375 1150.625 613.527344 1151.359375 612.679688 C 1151.855469 612.117188 1152.347656 611.5625 1152.851562 611.003906 C 1153.585938 610.191406 1154.320312 609.375 1155.0625 608.574219 C 1155.570312 608.019531 1156.082031 607.472656 1156.597656 606.925781 C 1157.355469 606.117188 1158.125 605.324219 1158.890625 604.53125 C 1159.398438 604.003906 1159.910156 603.480469 1160.425781 602.964844 C 1161.242188 602.132812 1162.074219 601.316406 1162.914062 600.507812 C 1163.382812 600.042969 1163.855469 599.570312 1164.335938 599.105469 C 1165.339844 598.148438 1166.359375 597.195312 1167.386719 596.257812 C 1167.707031 595.960938 1168.023438 595.660156 1168.34375 595.359375 C 1169.691406 594.132812 1171.0625 592.917969 1172.441406 591.71875 C 1172.785156 591.425781 1173.144531 591.132812 1173.492188 590.835938 C 1174.53125 589.941406 1175.582031 589.058594 1176.644531 588.191406 L 1177.003906 587.882812 C 1177.191406 587.734375 1177.386719 587.589844 1177.566406 587.441406 C 1179.597656 585.792969 1181.648438 584.175781 1183.738281 582.601562 L 1184.113281 582.324219 C 1186.242188 580.722656 1188.414062 579.175781 1190.601562 577.65625 C 1190.96875 577.402344 1191.335938 577.140625 1191.710938 576.886719 C 1193.839844 575.433594 1195.996094 574.015625 1198.183594 572.636719 C 1198.589844 572.375 1198.992188 572.128906 1199.40625 571.867188 C 1201.636719 570.480469 1203.882812 569.125 1206.167969 567.820312 C 1206.433594 567.671875 1206.695312 567.527344 1206.957031 567.378906 C 1209.21875 566.097656 1211.496094 564.855469 1213.804688 563.65625 C 1214.027344 563.542969 1214.246094 563.421875 1214.464844 563.308594 C 1216.824219 562.097656 1219.210938 560.933594 1221.617188 559.804688 C 1222.050781 559.601562 1222.480469 559.398438 1222.914062 559.199219 C 1225.273438 558.109375 1227.664062 557.0625 1230.066406 556.066406 C 1230.503906 555.878906 1230.9375 555.707031 1231.371094 555.527344 C 1233.851562 554.515625 1236.355469 553.535156 1238.878906 552.613281 C 1239.089844 552.539062 1239.304688 552.460938 1239.515625 552.386719 C 1241.996094 551.488281 1244.496094 550.640625 1247.023438 549.839844 C 1247.320312 549.742188 1247.628906 549.636719 1247.9375 549.539062 C 1250.476562 548.738281 1253.054688 547.996094 1255.628906 547.285156 C 1256.117188 547.160156 1256.597656 547.023438 1257.074219 546.894531 C 1259.636719 546.214844 1262.207031 545.578125 1264.808594 544.992188 C 1265.25 544.894531 1265.699219 544.796875 1266.140625 544.699219 C 1268.835938 544.109375 1271.550781 543.554688 1274.285156 543.066406 L 1274.679688 543.007812 C 1277.371094 542.527344 1280.082031 542.117188 1282.800781 541.742188 C 1283.191406 541.6875 1283.566406 541.628906 1283.957031 541.585938 C 1286.644531 541.230469 1289.359375 540.933594 1292.085938 540.683594 C 1292.59375 540.632812 1293.109375 540.589844 1293.628906 540.542969 C 1296.347656 540.316406 1299.082031 540.132812 1301.824219 540.003906 C 1302.257812 539.980469 1302.699219 539.964844 1303.140625 539.953125 C 1306.027344 539.839844 1308.917969 539.765625 1311.832031 539.765625 C 1314.011719 539.765625 1316.191406 539.800781 1318.367188 539.867188 C 1319.03125 539.890625 1319.707031 539.921875 1320.375 539.953125 C 1321.910156 540.011719 1323.429688 540.085938 1324.957031 540.183594 C 1325.699219 540.226562 1326.433594 540.28125 1327.167969 540.332031 C 1328.734375 540.445312 1330.300781 540.582031 1331.859375 540.730469 C 1332.464844 540.78125 1333.070312 540.835938 1333.679688 540.902344 C 1335.8125 541.121094 1337.949219 541.367188 1340.070312 541.652344 C 1340.40625 541.703125 1340.742188 541.757812 1341.074219 541.800781 C 1342.871094 542.054688 1344.660156 542.324219 1346.453125 542.625 C 1347.140625 542.738281 1347.824219 542.859375 1348.503906 542.976562 C 1349.972656 543.238281 1351.433594 543.511719 1352.894531 543.800781 C 1353.605469 543.945312 1354.308594 544.078125 1355.015625 544.230469 C 1356.609375 544.558594 1358.199219 544.910156 1359.785156 545.285156 C 1360.289062 545.398438 1360.789062 545.511719 1361.285156 545.628906 C 1363.351562 546.125 1365.414062 546.648438 1367.457031 547.203125 C 1367.929688 547.339844 1368.402344 547.480469 1368.882812 547.613281 C 1370.460938 548.050781 1372.035156 548.507812 1373.609375 548.984375 C 1374.289062 549.195312 1374.964844 549.40625 1375.640625 549.621094 C 1377.046875 550.074219 1378.457031 550.53125 1379.851562 551 C 1380.507812 551.226562 1381.167969 551.445312 1381.820312 551.675781 C 1383.484375 552.253906 1385.140625 552.859375 1386.78125 553.480469 C 1387.117188 553.609375 1387.460938 553.722656 1387.796875 553.855469 C 1389.769531 554.613281 1391.722656 555.398438 1393.671875 556.207031 C 1394.210938 556.433594 1394.75 556.671875 1395.289062 556.90625 C 1396.707031 557.511719 1398.121094 558.132812 1399.53125 558.769531 C 1400.183594 559.0625 1400.839844 559.371094 1401.492188 559.675781 C 1402.835938 560.296875 1404.175781 560.941406 1405.5 561.59375 C 1406.09375 561.878906 1406.691406 562.171875 1407.285156 562.472656 C 1409.097656 563.378906 1410.894531 564.308594 1412.6875 565.273438 L 1412.894531 565.378906 C 1414.746094 566.382812 1416.582031 567.414062 1418.402344 568.472656 C 1418.964844 568.792969 1419.519531 569.132812 1420.082031 569.460938 C 1421.359375 570.21875 1422.632812 570.980469 1423.902344 571.769531 C 1424.515625 572.152344 1425.128906 572.53125 1425.734375 572.921875 C 1427.023438 573.730469 1428.296875 574.5625 1429.566406 575.402344 C 1430.074219 575.738281 1430.582031 576.070312 1431.085938 576.40625 C 1432.832031 577.582031 1434.5625 578.78125 1436.269531 580.007812 C 1436.5 580.175781 1436.726562 580.355469 1436.953125 580.519531 C 1438.433594 581.589844 1439.902344 582.683594 1441.347656 583.792969 C 1441.894531 584.203125 1442.433594 584.632812 1442.976562 585.050781 C 1444.128906 585.957031 1445.28125 586.871094 1446.421875 587.792969 C 1446.976562 588.242188 1447.53125 588.699219 1448.078125 589.148438 C 1449.304688 590.175781 1450.527344 591.210938 1451.734375 592.257812 C 1452.128906 592.601562 1452.535156 592.941406 1452.929688 593.292969 C 1454.511719 594.683594 1456.070312 596.101562 1457.605469 597.539062 C 1457.957031 597.863281 1458.296875 598.199219 1458.640625 598.527344 C 1459.839844 599.660156 1461.023438 600.804688 1462.199219 601.96875 C 1462.699219 602.46875 1463.195312 602.980469 1463.695312 603.480469 C 1464.730469 604.53125 1465.757812 605.585938 1466.769531 606.65625 C 1467.246094 607.167969 1467.734375 607.667969 1468.207031 608.1875 C 1468.46875 608.460938 1468.730469 608.734375 1468.984375 609.003906 L 1503.671875 646.722656 L 1503.761719 646.714844 C 1506.886719 646.566406 1510.003906 646.460938 1513.121094 646.378906 C 1513.882812 646.355469 1514.640625 646.339844 1515.40625 646.324219 C 1518.527344 646.25 1521.644531 646.207031 1524.746094 646.207031 C 1533.984375 646.207031 1543.304688 646.503906 1552.578125 647.089844 C 1554.039062 644.542969 1555.566406 642.039062 1557.132812 639.566406 C 1557.574219 638.863281 1558.03125 638.167969 1558.480469 637.476562 C 1559.726562 635.546875 1561.007812 633.640625 1562.308594 631.761719 C 1562.707031 631.183594 1563.097656 630.601562 1563.507812 630.03125 C 1565.179688 627.679688 1566.894531 625.355469 1568.65625 623.070312 C 1569.023438 622.597656 1569.398438 622.136719 1569.773438 621.671875 C 1571.21875 619.820312 1572.699219 618 1574.207031 616.203125 C 1574.746094 615.558594 1575.292969 614.921875 1575.832031 614.285156 C 1577.511719 612.34375 1579.203125 610.425781 1580.941406 608.550781 C 1581.179688 608.296875 1581.398438 608.035156 1581.636719 607.789062 C 1583.59375 605.691406 1585.609375 603.636719 1587.648438 601.621094 C 1588.203125 601.074219 1588.769531 600.535156 1589.332031 599.988281 C 1590.941406 598.4375 1592.570312 596.917969 1594.21875 595.417969 C 1594.777344 594.902344 1595.339844 594.386719 1595.902344 593.882812 C 1598.046875 591.988281 1600.210938 590.125 1602.414062 588.308594 L 1602.621094 588.136719 C 1602.929688 587.890625 1603.253906 587.652344 1603.558594 587.402344 C 1605.3125 585.988281 1607.085938 584.59375 1608.886719 583.230469 C 1609.582031 582.707031 1610.285156 582.1875 1610.992188 581.664062 C 1612.585938 580.488281 1614.199219 579.335938 1615.816406 578.203125 C 1616.488281 577.738281 1617.15625 577.265625 1617.824219 576.804688 C 1620.085938 575.273438 1622.363281 573.769531 1624.671875 572.324219 L 1624.949219 572.152344 C 1627.171875 570.765625 1629.433594 569.421875 1631.707031 568.121094 C 1632.433594 567.699219 1633.167969 567.304688 1633.902344 566.890625 C 1635.625 565.933594 1637.355469 564.988281 1639.105469 564.074219 C 1639.871094 563.675781 1640.636719 563.273438 1641.398438 562.882812 C 1643.496094 561.820312 1645.609375 560.792969 1647.746094 559.796875 C 1648.097656 559.632812 1648.441406 559.453125 1648.800781 559.289062 C 1651.28125 558.148438 1653.785156 557.0625 1656.308594 556.011719 C 1657.019531 555.722656 1657.738281 555.445312 1658.449219 555.152344 C 1660.324219 554.402344 1662.203125 553.675781 1664.09375 552.972656 C 1664.929688 552.664062 1665.753906 552.363281 1666.59375 552.066406 C 1668.609375 551.347656 1670.640625 550.664062 1672.675781 550.003906 C 1673.277344 549.808594 1673.867188 549.609375 1674.46875 549.421875 C 1677.082031 548.605469 1679.71875 547.839844 1682.371094 547.121094 C 1683 546.949219 1683.636719 546.796875 1684.273438 546.632812 C 1686.335938 546.09375 1688.394531 545.585938 1690.476562 545.113281 C 1691.347656 544.910156 1692.214844 544.722656 1693.09375 544.535156 C 1695.09375 544.101562 1697.109375 543.703125 1699.128906 543.328125 C 1699.871094 543.1875 1700.621094 543.039062 1701.371094 542.910156 C 1704.097656 542.429688 1706.832031 542.003906 1709.589844 541.636719 C 1710.03125 541.578125 1710.480469 541.53125 1710.929688 541.480469 C 1713.253906 541.179688 1715.589844 540.925781 1717.933594 540.699219 C 1718.8125 540.617188 1719.695312 540.550781 1720.570312 540.484375 C 1722.59375 540.316406 1724.625 540.183594 1726.664062 540.078125 C 1727.507812 540.035156 1728.355469 539.980469 1729.203125 539.953125 C 1732.011719 539.839844 1734.828125 539.765625 1737.660156 539.765625 C 1754.203125 539.765625 1770.308594 541.652344 1785.773438 545.234375 C 1787.863281 545.710938 1789.929688 546.238281 1791.992188 546.785156 C 1794.640625 547.480469 1797.265625 548.230469 1799.863281 549.023438 C 1807.679688 551.40625 1815.289062 554.230469 1822.691406 557.460938 C 1824.429688 558.222656 1826.152344 559.003906 1827.867188 559.804688 C 1834.851562 563.078125 1841.636719 566.703125 1848.191406 570.691406 C 1849.652344 571.582031 1851.105469 572.488281 1852.554688 573.417969 C 1867.070312 582.734375 1880.398438 593.773438 1892.238281 606.230469 C 1892.648438 606.65625 1893.046875 607.089844 1893.441406 607.527344 C 1894.289062 608.425781 1895.128906 609.324219 1895.953125 610.238281 C 1896.425781 610.761719 1896.890625 611.292969 1897.359375 611.828125 C 1898.101562 612.664062 1898.84375 613.503906 1899.570312 614.359375 C 1900.058594 614.921875 1900.539062 615.488281 1901.015625 616.066406 C 1901.714844 616.898438 1902.410156 617.730469 1903.09375 618.570312 C 1903.332031 618.867188 1903.578125 619.152344 1903.820312 619.445312 L 2321.667969 1137.984375 C 2257.472656 1436.917969 2029.34375 1674.957031 1735.980469 1753.457031 M 1311.832031 540.722656 C 1194.738281 540.722656 1099.464844 635.988281 1099.464844 753.082031 C 1099.464844 808.722656 1120.914062 861.359375 1159.855469 901.289062 C 1160.089844 901.523438 1160.179688 901.859375 1160.101562 902.183594 C 1158.6875 908.191406 1157.453125 914.339844 1156.441406 920.453125 C 1156.378906 920.804688 1156.125 921.097656 1155.789062 921.210938 C 1090.257812 942.691406 1046.238281 1003.46875 1046.238281 1072.460938 C 1046.238281 1162.367188 1099.324219 1245.070312 1195.71875 1305.332031 C 1284.429688 1360.75 1401.277344 1391.269531 1524.746094 1391.269531 C 1648.21875 1391.269531 1765.066406 1360.75 1853.765625 1305.332031 C 1950.164062 1245.085938 2003.257812 1162.382812 2003.257812 1072.460938 C 2003.257812 1003.460938 1959.226562 942.683594 1893.699219 921.210938 C 1893.351562 921.097656 1893.105469 920.804688 1893.046875 920.453125 C 1892.070312 914.492188 1890.835938 908.339844 1889.390625 902.183594 C 1889.316406 901.859375 1889.40625 901.523438 1889.636719 901.289062 C 1928.578125 861.359375 1950.019531 808.722656 1950.019531 753.082031 C 1950.019531 635.988281 1854.753906 540.722656 1737.660156 540.722656 C 1661.882812 540.722656 1591.28125 581.664062 1553.402344 647.570312 C 1553.230469 647.867188 1552.914062 648.050781 1552.578125 648.050781 L 1552.511719 648.050781 C 1543.207031 647.464844 1533.863281 647.164062 1524.746094 647.164062 C 1515.628906 647.164062 1506.292969 647.464844 1496.976562 648.054688 L 1496.914062 648.054688 C 1496.578125 648.054688 1496.253906 647.875 1496.082031 647.578125 C 1458.207031 581.664062 1387.605469 540.722656 1311.832031 540.722656 " fill-opacity="1" fill-rule="nonzero"/></g></g><path fill="#006233" d="M 1839.898438 1283.121094 C 1755.3125 1335.980469 1643.386719 1365.09375 1524.746094 1365.09375 C 1406.109375 1365.09375 1294.183594 1335.980469 1209.59375 1283.121094 C 1121.140625 1227.832031 1072.421875 1153.011719 1072.421875 1072.453125 C 1072.421875 1007.816406 1118.785156 953.792969 1180.015625 941.917969 C 1181.589844 925.390625 1184.8125 909.179688 1189.554688 893.363281 C 1150.410156 859.210938 1125.648438 808.984375 1125.648438 753.082031 C 1125.648438 650.417969 1209.167969 566.898438 1311.832031 566.898438 C 1386.890625 566.898438 1451.703125 611.550781 1481.144531 675.671875 C 1495.5 674.148438 1510.046875 673.347656 1524.746094 673.347656 C 1539.445312 673.347656 1553.992188 674.136719 1568.347656 675.664062 C 1597.789062 611.535156 1662.601562 566.898438 1737.660156 566.898438 C 1840.328125 566.898438 1923.84375 650.417969 1923.84375 753.082031 C 1923.84375 808.984375 1899.085938 859.210938 1859.941406 893.363281 C 1864.683594 909.179688 1867.902344 925.40625 1869.476562 941.917969 C 1930.699219 953.792969 1977.074219 1007.816406 1977.074219 1072.453125 C 1977.074219 1153.011719 1928.355469 1227.832031 1839.898438 1283.121094 Z M 1893.996094 920.296875 C 1892.984375 914.160156 1891.75 908.03125 1890.320312 901.957031 C 1929.066406 862.230469 1950.980469 808.878906 1950.980469 753.082031 C 1950.980469 635.457031 1855.28125 539.765625 1737.660156 539.765625 C 1661.066406 539.765625 1590.375 581.320312 1552.578125 647.089844 C 1543.304688 646.503906 1533.984375 646.207031 1524.746094 646.207031 C 1515.546875 646.207031 1506.25 646.503906 1496.914062 647.097656 C 1459.113281 581.320312 1388.425781 539.765625 1311.832031 539.765625 C 1194.199219 539.765625 1098.507812 635.457031 1098.507812 753.082031 C 1098.507812 808.867188 1120.425781 862.230469 1159.175781 901.957031 C 1157.734375 908.046875 1156.507812 914.167969 1155.488281 920.296875 C 1090.582031 941.574219 1045.277344 1002.683594 1045.277344 1072.460938 C 1045.277344 1162.707031 1098.523438 1245.707031 1195.210938 1306.148438 C 1284.074219 1361.664062 1401.105469 1392.230469 1524.746094 1392.230469 C 1648.398438 1392.230469 1765.417969 1361.664062 1854.277344 1306.148438 C 1950.957031 1245.722656 2004.214844 1162.726562 2004.214844 1072.460938 C 2004.214844 1002.683594 1958.914062 941.574219 1893.996094 920.296875 " fill-opacity="1" fill-rule="nonzero"/><path fill="#006233" d="M 1711.15625 726.578125 L 1764.167969 726.578125 L 1764.167969 779.589844 L 1711.15625 779.589844 Z M 1737.660156 886.261719 C 1811.09375 886.261719 1870.839844 826.523438 1870.839844 753.082031 C 1870.839844 679.648438 1811.09375 619.902344 1737.660156 619.902344 C 1664.21875 619.902344 1604.480469 679.648438 1604.480469 753.082031 C 1604.480469 826.523438 1664.21875 886.261719 1737.660156 886.261719 " fill-opacity="1" fill-rule="nonzero"/><path fill="#006233" d="M 1762.429688 1209.070312 C 1698.5 1241.03125 1614.085938 1258.644531 1524.746094 1258.644531 C 1435.40625 1258.644531 1350.992188 1241.03125 1287.066406 1209.070312 C 1217.292969 1174.191406 1178.878906 1125.675781 1178.878906 1072.453125 L 1231.882812 1072.453125 C 1231.882812 1104.066406 1260.632812 1136.589844 1310.769531 1161.664062 C 1367.480469 1190.019531 1443.476562 1205.632812 1524.746094 1205.632812 C 1606.015625 1205.632812 1682.011719 1190.019531 1738.722656 1161.664062 C 1788.867188 1136.589844 1817.613281 1104.066406 1817.613281 1072.453125 L 1870.617188 1072.453125 C 1870.617188 1125.675781 1832.199219 1174.191406 1762.429688 1209.070312 Z M 1445.011719 1045.949219 L 1498.023438 1045.949219 L 1498.023438 1098.960938 L 1445.011719 1098.960938 Z M 1551.46875 1045.949219 L 1604.480469 1045.949219 L 1604.480469 1098.960938 L 1551.46875 1098.960938 Z M 1844.109375 992.503906 L 1817.613281 992.503906 C 1817.910156 971.691406 1817.808594 942.03125 1812.96875 923.355469 C 1789.921875 933.574219 1764.441406 939.273438 1737.660156 939.273438 C 1634.996094 939.273438 1551.46875 855.75 1551.46875 753.082031 C 1551.46875 744.40625 1552.082031 735.867188 1553.238281 727.5 C 1543.859375 726.757812 1534.359375 726.359375 1524.746094 726.359375 C 1515.128906 726.359375 1505.636719 726.757812 1496.253906 727.5 C 1497.410156 735.867188 1498.023438 744.40625 1498.023438 753.082031 C 1498.023438 855.75 1414.5 939.273438 1311.832031 939.273438 C 1285.058594 939.273438 1259.585938 933.585938 1236.5625 923.359375 C 1231.296875 945.777344 1231.722656 970.671875 1231.882812 992.503906 L 1205.375 992.503906 C 1161.285156 992.503906 1125.425781 1028.363281 1125.425781 1072.453125 C 1125.425781 1134.066406 1165.289062 1192.917969 1237.6875 1238.164062 C 1313.960938 1285.839844 1415.90625 1312.089844 1524.746094 1312.089844 C 1633.585938 1312.089844 1735.53125 1285.839844 1811.804688 1238.164062 C 1884.207031 1192.917969 1924.070312 1134.066406 1924.070312 1072.453125 C 1924.070312 1028.363281 1888.207031 992.503906 1844.109375 992.503906 " fill-opacity="1" fill-rule="nonzero"/><path fill="#006233" d="M 1285.328125 726.578125 L 1338.339844 726.578125 L 1338.339844 779.589844 L 1285.328125 779.589844 Z M 1311.832031 886.261719 C 1385.273438 886.261719 1445.011719 826.523438 1445.011719 753.082031 C 1445.011719 679.648438 1385.273438 619.902344 1311.832031 619.902344 C 1238.398438 619.902344 1178.652344 679.648438 1178.652344 753.082031 C 1178.652344 826.523438 1238.398438 886.261719 1311.832031 886.261719 " fill-opacity="1" fill-rule="nonzero"/></svg>